# xmcd CD database file
#
# Track frame offsets:
#	150
#	21517
#	40668
#	66328
#	92474
#	112757
#	124426
#	145520
#	168049
#	199313
#	219384
#	240623
#	262432
#
# Disc length: 3743 seconds
#
# Revision: 0
# Processed by: cddbd v1.5.2PL0 Copyright (c) Steve Scherf et al.
# Submitted via: CDex 1.51
#
DISCID=b90e9d0d
DTITLE=Maya Hatch  - Lil Darlin
DYEAR=2012
DGENRE=Jazz
TTITLE0=GREEN DOLPHIN STREET
TTITLE1=TEA FOR TWO
TTITLE2=ROUND MIDNIGHT
TTITLE3=LI`L DARLIN
TTITLE4=AFRO BLUE
TTITLE5=CARAVAN
TTITLE6=GIANT STEPS
TTITLE7=DOXY
TTITLE8=THE BOY FROM IPANEMA
TTITLE9=CHASE THE PATH
TTITLE10=TOGETHER
TTITLE11=UEO MUITE ARUKO
TTITLE12=GROW YOUR BEAUTY
EXTD=YEAR: 2012
EXTT0=
EXTT1=
EXTT2=
EXTT3=
EXTT4=
EXTT5=
EXTT6=
EXTT7=
EXTT8=
EXTT9=
EXTT10=
EXTT11=
EXTT12=
PLAYORDER=
